<svg id="Layer_1" data-name="Layer 1" xmlns="http://www.w3.org/2000/svg" xmlns:xlink="http://www.w3.org/1999/xlink" viewBox="0 0 490 360"><defs><style>.cls-1,.cls-10,.cls-11,.cls-19,.cls-20,.cls-23,.cls-24,.cls-25,.cls-27,.cls-28,.cls-31,.cls-34,.cls-9{fill:none;}.cls-18,.cls-2{fill:#0f5893;}.cls-3{clip-path:url(#clip-path);}.cls-4{fill:#e7e7e7;}.cls-5{clip-path:url(#clip-path-2);}.cls-6{fill:#104481;}.cls-7{clip-path:url(#clip-path-3);}.cls-8{fill:#d0d0d0;}.cls-19,.cls-34,.cls-9{stroke:#979797;}.cls-10,.cls-20,.cls-24,.cls-9{stroke-linecap:square;}.cls-10,.cls-11,.cls-19,.cls-20,.cls-23,.cls-24,.cls-25,.cls-31,.cls-34,.cls-9{stroke-miterlimit:10;}.cls-10{stroke:#4a4a4a;stroke-dasharray:4 6;}.cls-11,.cls-31{stroke:#000;}.cls-11,.cls-20{stroke-width:2px;}.cls-12,.cls-16{font-size:9px;}.cls-12,.cls-13{fill:#5c5c5c;}.cls-12,.cls-14,.cls-18,.cls-26{font-family:OpenSans-Regular, Open Sans;}.cls-14,.cls-18{font-size:10px;}.cls-15{letter-spacing:-0.02em;}.cls-16{fill:#59a3e8;font-family:FiraCode-Medium, Fira Code;font-weight:500;}.cls-17{fill:#919191;letter-spacing:0em;}.cls-20,.cls-23,.cls-24,.cls-25{stroke:#104481;}.cls-21{clip-path:url(#clip-path-5);}.cls-22{clip-path:url(#clip-path-6);}.cls-23{stroke-width:4px;stroke-dasharray:1 1;}.cls-26{font-size:12px;}.cls-27{stroke:#e53e3e;}.cls-27,.cls-28,.cls-34{stroke-linecap:round;}.cls-27,.cls-28{stroke-linejoin:round;}.cls-28{stroke:#4f9979;}.cls-29{clip-path:url(#clip-path-7);}.cls-30{fill:#fff;}.cls-32{clip-path:url(#clip-path-8);}.cls-33{clip-path:url(#clip-path-9);}</style><clipPath id="clip-path"><rect class="cls-1" x="120" y="42.5" width="200" height="275"/></clipPath><clipPath id="clip-path-2"><rect class="cls-1" x="246" y="67" width="25" height="26"/></clipPath><clipPath id="clip-path-3"><rect class="cls-1" x="146" y="242" width="25" height="25"/></clipPath><clipPath id="clip-path-5"><circle class="cls-1" cx="208" cy="279.67" r="2"/></clipPath><clipPath id="clip-path-6"><rect class="cls-1" x="270" y="92.5" width="25" height="25"/></clipPath><clipPath id="clip-path-7"><circle class="cls-1" cx="360.7" cy="297.3" r="3"/></clipPath><clipPath id="clip-path-8"><circle id="SVGID" class="cls-2" cx="360.7" cy="297.3" r="1"/></clipPath><clipPath id="clip-path-9"><circle class="cls-1" cx="220.5" cy="180" r="1"/></clipPath></defs><g class="cls-3"><rect class="cls-4" x="115" y="37.5" width="210" height="285"/></g><g class="cls-5"><rect class="cls-6" x="241" y="62" width="35" height="36"/></g><g class="cls-7"><rect class="cls-8" x="141" y="237" width="35" height="35"/></g><line class="cls-9" x1="145.5" y1="43.5" x2="145.5" y2="316.5"/><line class="cls-9" x1="170.5" y1="43.5" x2="170.5" y2="316.5"/><line class="cls-9" x1="294.59" y1="43.5" x2="294.6" y2="316.5"/><line class="cls-9" x1="270.5" y1="43.5" x2="270.5" y2="316.5"/><line class="cls-9" x1="245.5" y1="43" x2="245.5" y2="317"/><line class="cls-9" x1="195.5" y1="43.5" x2="195.5" y2="316.5"/><line class="cls-9" x1="220.5" y1="43.5" x2="220.5" y2="316.5"/><line class="cls-9" x1="120.5" y1="67.49" x2="319.5" y2="67.72"/><line class="cls-9" x1="120.5" y1="92.5" x2="319.5" y2="92.25"/><line class="cls-9" x1="120.5" y1="117.5" x2="319.5" y2="117.25"/><line class="cls-9" x1="120.5" y1="142.5" x2="319.5" y2="142.13"/><line class="cls-9" x1="120.5" y1="167.5" x2="319.5" y2="167.08"/><line class="cls-9" x1="120.5" y1="192.5" x2="319.5" y2="192.06"/><line class="cls-9" x1="120.5" y1="217.5" x2="319.5" y2="217.05"/><line class="cls-9" x1="120.5" y1="242.5" x2="319.5" y2="242.04"/><line class="cls-9" x1="120.5" y1="267.5" x2="319.5" y2="267.03"/><line class="cls-9" x1="120.5" y1="292.22" x2="319.5" y2="292.65"/><line class="cls-10" x1="220.5" y1="327.5" x2="220.25" y2="28.48"/><line class="cls-10" x1="108" y1="180" x2="337.5" y2="180"/><g class="cls-3"><rect class="cls-11" x="120" y="42.5" width="200" height="275"/></g><text class="cls-12" transform="translate(125.49 59)">0, 0</text><text class="cls-12" transform="translate(150.49 59)">0, 1</text><text class="cls-12" transform="translate(150.49 83)">1, 1</text><path class="cls-13" d="M155.5,107v1h-1v-1Zm3,0v1h-1v-1Zm3,0v1h-1v-1Z"/><path class="cls-13" d="M204.5,58v1h-1V58Zm3,0v1h-1V58Zm3,0v1h-1V58Z"/><path class="cls-13" d="M279.5,58v1h-1V58Zm3,0v1h-1V58Zm3,0v1h-1V58Z"/><path class="cls-13" d="M304,82v1h-1V82Zm3,0v1h-1V82Zm3,0v1h-1V82Z"/><path class="cls-13" d="M304,283v1h-1v-1Zm3,0v1h-1v-1Zm3,0v1h-1v-1Z"/><path class="cls-13" d="M280,307v1h-1v-1Zm3,0v1h-1v-1Zm3,0v1h-1v-1Z"/><path class="cls-13" d="M155,307v1h-1v-1Zm3,0v1h-1v-1Zm3,0v1h-1v-1Z"/><path class="cls-13" d="M180.5,82v1h-1V82Zm3,0v1h-1V82Zm3,0v1h-1V82Z"/><path class="cls-13" d="M130.5,133v1h-1v-1Zm3,0v1h-1v-1Zm3,0v1h-1v-1Z"/><path class="cls-13" d="M130.5,283v1h-1v-1Zm3,0v1h-1v-1Zm3,0v1h-1v-1Z"/><text class="cls-12" transform="translate(175.49 59)">0, 2</text><text class="cls-14" transform="translate(346 219) rotate(-90)">length in x-di<tspan class="cls-15" x="60.4" y="0">r</tspan><tspan x="64.3" y="0">ection [m]</tspan></text><text class="cls-16" transform="translate(358 219) rotate(-90)">getLength()<tspan class="cls-17" x="60.92" y="0">.x()</tspan></text><text class="cls-14" transform="translate(177 340)">length in y-di<tspan class="cls-15" x="60.2" y="0">r</tspan><tspan x="64.1" y="0">ection [m]</tspan></text><text class="cls-16" transform="translate(177 352)">getLength()<tspan class="cls-17" x="60.92" y="0">.y()</tspan></text><text class="cls-12" transform="translate(125.49 83)">1, 0</text><text class="cls-12" transform="translate(125.49 108)">2, 0</text><text class="cls-12" transform="translate(122.99 308)">10, 0</text><text class="cls-12" transform="translate(296.49 308)">10, 7</text><text class="cls-12" transform="translate(298.99 59)">0, 7</text><text class="cls-14" transform="translate(83.5 212.5) rotate(-90)">number of <tspan class="cls-15" x="52.02" y="0">r</tspan><tspan x="55.92" y="0">ows</tspan></text><text class="cls-16" transform="translate(95.5 212.5) rotate(-90)">getSize()(0)</text><text class="cls-14" transform="translate(176.5 11)">number of columns</text><text class="cls-16" transform="translate(176.5 23)">getsize()(1)</text><text class="cls-14" transform="translate(6.14 256.58)">cell index at position</text><text class="cls-16" transform="translate(37.52 268.58)">getIndex()</text><text class="cls-14" transform="translate(340.99 81)"><tspan class="cls-15">r</tspan><tspan x="3.9" y="0">esolution/grid size [m/cell]</tspan></text><text class="cls-16" transform="translate(340.99 93)">getResolution()</text><text class="cls-14" transform="translate(7.46 296)">position of a cell [m]</text><text class="cls-16" transform="translate(20.13 308)">getPosition()</text><text class="cls-14" transform="translate(340.69 32)">cell value for a layer</text><text class="cls-16" transform="translate(340.69 44)">at(index)<tspan x="0" y="10.8">atPosition(position)</tspan></text><text class="cls-14" transform="translate(342 237)">position of grid map</text><text class="cls-16" transform="translate(342 249)">getPosition()</text><text class="cls-18" transform="translate(144.28 176)">grid map center</text><text class="cls-18" transform="translate(374 294.3)">grid map frame</text><path class="cls-19" d="M285.27,105c29.57,2.52,40.92-20.91,52.14-22.69"/><line class="cls-20" x1="167.7" y1="256" x2="163" y2="260.7"/><line class="cls-20" x1="167.7" y1="260.7" x2="163" y2="256"/><path class="cls-19" d="M103.1,258.22c18.25-1.54,37.85,9.48,54.8,0"/><g class="cls-21"><rect class="cls-6" x="201" y="272.67" width="14" height="14"/></g><g class="cls-22"><rect class="cls-23" x="270" y="92.5" width="25" height="25"/></g><path class="cls-19" d="M265.79,63.89c-4.68-46,41.64-29.8,71.43-32.51"/><line class="cls-24" x1="360.5" y1="297.5" x2="220.5" y2="180.5"/><path class="cls-25" d="M231.06,185.41l-10.21-4.62,6.36,9.23"/><text class="cls-26" transform="translate(357.88 272.42)">x</text><text class="cls-26" transform="translate(329.49 300.52)">y</text><text class="cls-26" transform="translate(362.6 307.52)">z</text><line class="cls-27" x1="360.6" y1="296.92" x2="360.6" y2="276.92"/><path class="cls-27" d="M363.6,287.72l-3-10.8-3,10.8"/><line class="cls-28" x1="360.1" y1="297.42" x2="340.1" y2="297.42"/><path class="cls-28" d="M350.9,294.42l-10.8,3,10.8,3"/><g class="cls-29"><rect class="cls-30" x="352.7" y="289.3" width="16" height="16"/></g><circle class="cls-31" cx="360.7" cy="297.3" r="3"/><circle id="SVGID-2" data-name="SVGID" class="cls-2" cx="360.7" cy="297.3" r="1"/><g class="cls-32"><rect class="cls-2" x="354.7" y="291.3" width="12" height="12"/></g><path class="cls-19" d="M104,297.61c25.62,4.13,38.14-12.25,55.81-9s29.93-9,41.93-9"/><g class="cls-33"><rect class="cls-6" x="214.5" y="174" width="12" height="12"/></g><path d="M10.74,13.55h1.9a3.59,3.59,0,0,1,1.92.38,1.35,1.35,0,0,1,.59,1.22,1.45,1.45,0,0,1-.29.94,1.26,1.26,0,0,1-.83.47v0a1.67,1.67,0,0,1,1,.51,1.48,1.48,0,0,1,.32,1,1.66,1.66,0,0,1-.6,1.36,2.61,2.61,0,0,1-1.68.49H10.74Zm1,2.65h1a1.71,1.71,0,0,0,1-.21.8.8,0,0,0,.3-.71.71.71,0,0,0-.32-.65,2,2,0,0,0-1-.21h-.91Zm0,.85v2H12.9a1.66,1.66,0,0,0,1-.26.92.92,0,0,0,.33-.79.86.86,0,0,0-.34-.75,1.82,1.82,0,0,0-1-.24Z"/><path d="M19.61,20l-.21-.68h0a2,2,0,0,1-.71.61,2.36,2.36,0,0,1-.91.16,1.54,1.54,0,0,1-1.12-.39,1.43,1.43,0,0,1-.4-1.09,1.3,1.3,0,0,1,.55-1.14,3.26,3.26,0,0,1,1.7-.41l.84,0v-.26a1,1,0,0,0-.21-.7.92.92,0,0,0-.68-.23,2.35,2.35,0,0,0-.71.11,6.47,6.47,0,0,0-.66.26l-.34-.74a3.89,3.89,0,0,1,.87-.31,4.08,4.08,0,0,1,.89-.11,2.13,2.13,0,0,1,1.4.41,1.59,1.59,0,0,1,.47,1.27V20Zm-1.54-.7A1.25,1.25,0,0,0,19,19a1.12,1.12,0,0,0,.34-.88v-.42l-.62,0a2,2,0,0,0-1.06.24.74.74,0,0,0-.33.67.65.65,0,0,0,.19.5A.82.82,0,0,0,18.07,19.27Z"/><path d="M25.05,18.59a1.29,1.29,0,0,1-.51,1.09,2.54,2.54,0,0,1-1.49.38,3.44,3.44,0,0,1-1.56-.3v-.89a3.73,3.73,0,0,0,1.6.4c.63,0,.95-.19.95-.58a.49.49,0,0,0-.11-.31,1.3,1.3,0,0,0-.34-.25,5.31,5.31,0,0,0-.68-.3,3.09,3.09,0,0,1-1.13-.65,1.2,1.2,0,0,1-.3-.84,1.11,1.11,0,0,1,.5-1A2.42,2.42,0,0,1,23.35,15a4,4,0,0,1,1.63.35l-.34.78a3.52,3.52,0,0,0-1.32-.33c-.55,0-.82.16-.82.47a.46.46,0,0,0,.21.38,5.18,5.18,0,0,0,.93.44,4,4,0,0,1,.88.43,1.19,1.19,0,0,1,.4.44A1.28,1.28,0,0,1,25.05,18.59Z"/><path d="M28.29,20.06a2.36,2.36,0,0,1-1.77-.66,2.5,2.5,0,0,1-.64-1.82,2.8,2.8,0,0,1,.59-1.88A2.07,2.07,0,0,1,28.1,15a2,2,0,0,1,1.52.59,2.18,2.18,0,0,1,.56,1.6v.56H26.94a1.63,1.63,0,0,0,.39,1.09,1.33,1.33,0,0,0,1,.38,3.94,3.94,0,0,0,.8-.08,3.59,3.59,0,0,0,.8-.27v.84a3.22,3.22,0,0,1-.76.25A4.74,4.74,0,0,1,28.29,20.06ZM28.1,15.8a1.05,1.05,0,0,0-.79.32A1.52,1.52,0,0,0,27,17h2.21a1.42,1.42,0,0,0-.29-.92A1,1,0,0,0,28.1,15.8Z"/><path d="M33,20.06a1.69,1.69,0,0,1-1.42-.66,3,3,0,0,1-.51-1.85,3,3,0,0,1,.51-1.86A1.7,1.7,0,0,1,33,15a1.68,1.68,0,0,1,1.46.71h.05a6,6,0,0,1-.07-.83V13.13h1V20h-.81l-.18-.64h0A1.64,1.64,0,0,1,33,20.06Zm.27-.84a1.12,1.12,0,0,0,.93-.36,1.9,1.9,0,0,0,.3-1.16v-.14a2.2,2.2,0,0,0-.3-1.31,1.1,1.1,0,0,0-.94-.38,1,1,0,0,0-.84.44,2.3,2.3,0,0,0-.29,1.26,2.11,2.11,0,0,0,.29,1.23A1,1,0,0,0,33.27,19.22Z"/><path d="M43.61,17.53A2.64,2.64,0,0,1,43,19.39a2.17,2.17,0,0,1-1.7.67,2.28,2.28,0,0,1-1.2-.31,2,2,0,0,1-.81-.88A3,3,0,0,1,39,17.53a2.59,2.59,0,0,1,.61-1.84,2.45,2.45,0,0,1,3.38,0A2.61,2.61,0,0,1,43.61,17.53Zm-3.54,0c0,1.12.42,1.68,1.25,1.68s1.23-.56,1.23-1.68-.41-1.66-1.24-1.66a1,1,0,0,0-.94.43A2.13,2.13,0,0,0,40.07,17.53Z"/><path d="M49.07,20H48V17a1.33,1.33,0,0,0-.23-.84.89.89,0,0,0-.72-.27,1.16,1.16,0,0,0-1,.38,2.16,2.16,0,0,0-.3,1.3V20h-1V15.11h.81l.14.64h.06a1.43,1.43,0,0,1,.62-.54,2,2,0,0,1,.9-.19,1.56,1.56,0,0,1,1.74,1.78Z"/><path d="M14.73,25.91v.57l-.83.15a1.23,1.23,0,0,1,.19.38,1.64,1.64,0,0,1-.44,1.66,2.24,2.24,0,0,1-1.43.43,2.5,2.5,0,0,1-.42,0,.58.58,0,0,0-.34.48.25.25,0,0,0,.16.25,1.23,1.23,0,0,0,.57.09H13a1.87,1.87,0,0,1,1.22.34,1.21,1.21,0,0,1,.42,1A1.43,1.43,0,0,1,14,32.48a3.59,3.59,0,0,1-2,.45,2.69,2.69,0,0,1-1.52-.35,1.13,1.13,0,0,1-.52-1,1,1,0,0,1,.28-.75,1.51,1.51,0,0,1,.8-.43.8.8,0,0,1-.48-.69.66.66,0,0,1,.16-.46,1.79,1.79,0,0,1,.45-.38,1.35,1.35,0,0,1-.61-.53,1.52,1.52,0,0,1-.24-.86,1.55,1.55,0,0,1,.5-1.22,2.12,2.12,0,0,1,1.42-.44l.44,0,.34.06Zm-3.82,5.62a.56.56,0,0,0,.3.51,1.68,1.68,0,0,0,.85.18A2.6,2.6,0,0,0,13.32,32a.74.74,0,0,0,.41-.64.49.49,0,0,0-.23-.45,1.78,1.78,0,0,0-.84-.14h-.78a1.11,1.11,0,0,0-.71.21A.7.7,0,0,0,10.91,31.53Zm.45-4.05a1,1,0,0,0,.23.71.91.91,0,0,0,.68.24c.59,0,.89-.32.89-1a1.08,1.08,0,0,0-.22-.73.84.84,0,0,0-.67-.25.86.86,0,0,0-.68.25A1,1,0,0,0,11.36,27.48Z"/><path d="M15.57,24.62a.57.57,0,0,1,.15-.42.6.6,0,0,1,.44-.15.57.57,0,1,1,0,1.14.6.6,0,0,1-.44-.15A.57.57,0,0,1,15.57,24.62Zm1.1,6.15h-1V25.91h1Z"/><path d="M20,30a2.51,2.51,0,0,0,.76-.12v.78a2.62,2.62,0,0,1-.44.13,3.43,3.43,0,0,1-.56.05c-1,0-1.47-.52-1.47-1.55V26.69h-.67v-.45l.72-.38.35-1h.64v1.08h1.38v.78H19.28v2.6a.77.77,0,0,0,.18.56A.73.73,0,0,0,20,30Z"/><path d="M26,30.77h-1v-3a1.33,1.33,0,0,0-.23-.84.89.89,0,0,0-.72-.27,1.15,1.15,0,0,0-.95.38,2.12,2.12,0,0,0-.31,1.31v2.41h-1V23.93h1v1.74c0,.28,0,.57-.05.89h.07a1.38,1.38,0,0,1,.58-.54,1.87,1.87,0,0,1,.88-.2A1.57,1.57,0,0,1,26,27.6Z"/><path d="M30.82,30.77l-.15-.64h-.05a1.46,1.46,0,0,1-.61.54,2.21,2.21,0,0,1-.91.19,1.8,1.8,0,0,1-1.32-.44,1.82,1.82,0,0,1-.43-1.33V25.91h1v3a1.28,1.28,0,0,0,.23.83.85.85,0,0,0,.71.28,1.13,1.13,0,0,0,1-.39,2.13,2.13,0,0,0,.31-1.3V25.91h1v4.86Z"/><path d="M35.59,25.82a1.7,1.7,0,0,1,1.42.66,3,3,0,0,1,.5,1.85A3,3,0,0,1,37,30.19a1.86,1.86,0,0,1-2.86,0h-.07l-.19.58H33.1V23.93h1v1.63c0,.12,0,.3,0,.53s0,.39,0,.46h0A1.63,1.63,0,0,1,35.59,25.82Zm-.27.85a1.05,1.05,0,0,0-.9.36,2.14,2.14,0,0,0-.28,1.23v.07a2.29,2.29,0,0,0,.28,1.29,1.05,1.05,0,0,0,.92.39.93.93,0,0,0,.83-.43,2.31,2.31,0,0,0,.28-1.26C36.45,27.22,36.08,26.67,35.32,26.67Z"/><path d="M38.56,30.22a.64.64,0,0,1,.17-.49.61.61,0,0,1,.48-.17.64.64,0,0,1,.49.18.66.66,0,0,1,.16.48.69.69,0,0,1-.17.5.73.73,0,0,1-1,0A.68.68,0,0,1,38.56,30.22Z"/><path d="M43.15,30.86a2.13,2.13,0,0,1-1.68-.65,2.67,2.67,0,0,1-.57-1.84,2.71,2.71,0,0,1,.6-1.89,2.21,2.21,0,0,1,1.73-.66,3.25,3.25,0,0,1,1.38.29l-.31.83a3.09,3.09,0,0,0-1.08-.26Q42,26.68,42,28.36a2,2,0,0,0,.31,1.23,1.1,1.1,0,0,0,.92.41,2.65,2.65,0,0,0,1.31-.35v.91a2.34,2.34,0,0,1-.59.23A4,4,0,0,1,43.15,30.86Z"/><path d="M50,28.33a2.62,2.62,0,0,1-.61,1.86,2.16,2.16,0,0,1-1.7.67,2.28,2.28,0,0,1-1.2-.31,2,2,0,0,1-.81-.88,3.14,3.14,0,0,1-.28-1.34A2.59,2.59,0,0,1,46,26.49a2.45,2.45,0,0,1,3.38,0A2.61,2.61,0,0,1,50,28.33Zm-3.53,0c0,1.12.41,1.68,1.24,1.68s1.23-.56,1.23-1.68-.41-1.66-1.24-1.66a1,1,0,0,0-.94.43A2.13,2.13,0,0,0,46.42,28.33Z"/><path d="M55.24,30.77h-1v-3a1.35,1.35,0,0,0-.21-.83.78.78,0,0,0-.66-.27,1,1,0,0,0-.88.38,2.36,2.36,0,0,0-.28,1.3v2.42h-1V25.91H52l.14.64h.06a1.38,1.38,0,0,1,.58-.54,2,2,0,0,1,.85-.19,1.47,1.47,0,0,1,1.48.77h.07a1.6,1.6,0,0,1,.61-.57,2,2,0,0,1,.9-.2,1.66,1.66,0,0,1,1.27.44,2,2,0,0,1,.39,1.34v3.17h-1v-3a1.35,1.35,0,0,0-.21-.83.8.8,0,0,0-.66-.27,1,1,0,0,0-.88.37,1.93,1.93,0,0,0-.28,1.16Z"/><path d="M62.44,24.35l-2.39,6.42h-1l2.39-6.42Z"/><path d="M67.35,30.77,66.71,29H64.25l-.63,1.78h-1.1l2.4-6.45h1.14l2.41,6.45Zm-.92-2.69-.6-1.75-.18-.55c-.08-.25-.13-.44-.16-.56a10.8,10.8,0,0,1-.35,1.19l-.58,1.67Z"/><path d="M74.67,30.77H73.38l-3.16-5.12h0l0,.29c0,.54.06,1,.06,1.49v3.34h-1V24.35h1.27l3.15,5.09h0c0-.07,0-.31,0-.74s0-.75,0-1V24.35h1Z"/><path d="M78.18,27.28l1.52-2.93h1.14L78.7,28.28v2.49h-1V28.31l-2.13-4h1.14Z"/><path d="M84.06,25.82a1.69,1.69,0,0,1,1.42.66A3,3,0,0,1,86,28.33a2.92,2.92,0,0,1-.52,1.86,1.67,1.67,0,0,1-1.42.67,1.7,1.7,0,0,1-1.44-.67h-.07l-.19.58h-.77V23.93h1v1.63c0,.12,0,.3,0,.53s0,.39,0,.46h0A1.64,1.64,0,0,1,84.06,25.82Zm-.26.85a1.05,1.05,0,0,0-.9.36,2.14,2.14,0,0,0-.29,1.23v.07a2.28,2.28,0,0,0,.29,1.29,1,1,0,0,0,.91.39.94.94,0,0,0,.84-.43,2.4,2.4,0,0,0,.28-1.26C84.93,27.22,84.55,26.67,83.8,26.67Z"/><path d="M91.5,28.33a2.62,2.62,0,0,1-.61,1.86,2.19,2.19,0,0,1-1.7.67A2.29,2.29,0,0,1,88,30.55a2.07,2.07,0,0,1-.8-.88,3,3,0,0,1-.28-1.34,2.63,2.63,0,0,1,.6-1.84,2.19,2.19,0,0,1,1.71-.67,2.14,2.14,0,0,1,1.67.68A2.62,2.62,0,0,1,91.5,28.33Zm-3.54,0c0,1.12.42,1.68,1.25,1.68s1.23-.56,1.23-1.68S90,26.67,89.2,26.67a1.06,1.06,0,0,0-1,.43A2.21,2.21,0,0,0,88,28.33Z"/><path d="M94.5,30a2.45,2.45,0,0,0,.75-.12v.78a2.36,2.36,0,0,1-.44.13,3.43,3.43,0,0,1-.56.05c-1,0-1.47-.52-1.47-1.55V26.69h-.66v-.45l.71-.38.35-1h.64v1.08H95.2v.78H93.82v2.6a.73.73,0,0,0,.19.56A.69.69,0,0,0,94.5,30Z"/><path d="M96.16,24.62a.57.57,0,0,1,.15-.42.62.62,0,0,1,.44-.15.57.57,0,1,1,0,1.14.62.62,0,0,1-.44-.15A.57.57,0,0,1,96.16,24.62Zm1.1,6.15h-1V25.91h1Z"/><path d="M100.69,30.86A2.12,2.12,0,0,1,99,30.21a2.62,2.62,0,0,1-.58-1.84,2.71,2.71,0,0,1,.6-1.89,2.23,2.23,0,0,1,1.74-.66,3.25,3.25,0,0,1,1.38.29l-.31.83a3.19,3.19,0,0,0-1.08-.26q-1.26,0-1.26,1.68a2,2,0,0,0,.31,1.23,1.1,1.1,0,0,0,.92.41,2.65,2.65,0,0,0,1.31-.35v.91a2.67,2.67,0,0,1-.59.23A4.13,4.13,0,0,1,100.69,30.86Z"/><path d="M106.45,29.39a1.28,1.28,0,0,1-.51,1.09,2.54,2.54,0,0,1-1.49.38,3.44,3.44,0,0,1-1.56-.3v-.89a3.73,3.73,0,0,0,1.6.4c.63,0,1-.19,1-.58a.49.49,0,0,0-.11-.31,1.3,1.3,0,0,0-.34-.25,5.31,5.31,0,0,0-.68-.3,3.09,3.09,0,0,1-1.13-.65,1.2,1.2,0,0,1-.3-.84,1.11,1.11,0,0,1,.5-1,2.42,2.42,0,0,1,1.37-.35,4,4,0,0,1,1.63.35L106,27a3.52,3.52,0,0,0-1.32-.33c-.55,0-.82.16-.82.47a.46.46,0,0,0,.21.38,4.55,4.55,0,0,0,.93.44,4,4,0,0,1,.88.43,1.19,1.19,0,0,1,.4.44A1.28,1.28,0,0,1,106.45,29.39Z"/><path d="M110.27,24.35l-2.39,6.42h-1l2.4-6.42Z"/><path d="M14.73,36.71v.57l-.83.15a1.23,1.23,0,0,1,.19.38,1.64,1.64,0,0,1-.44,1.66,2.24,2.24,0,0,1-1.43.43,2.5,2.5,0,0,1-.42,0,.58.58,0,0,0-.34.48.25.25,0,0,0,.16.25,1.23,1.23,0,0,0,.57.09H13a1.87,1.87,0,0,1,1.22.34,1.21,1.21,0,0,1,.42,1A1.43,1.43,0,0,1,14,43.28a3.59,3.59,0,0,1-2,.45,2.69,2.69,0,0,1-1.52-.35,1.13,1.13,0,0,1-.52-1,1.08,1.08,0,0,1,.28-.76,1.57,1.57,0,0,1,.8-.42.8.8,0,0,1-.48-.69.66.66,0,0,1,.16-.46,1.6,1.6,0,0,1,.45-.38,1.35,1.35,0,0,1-.61-.53,1.52,1.52,0,0,1-.24-.86,1.55,1.55,0,0,1,.5-1.22,2.12,2.12,0,0,1,1.42-.44l.44,0,.34.06Zm-3.82,5.62a.56.56,0,0,0,.3.51,1.68,1.68,0,0,0,.85.18,2.6,2.6,0,0,0,1.26-.24.74.74,0,0,0,.41-.64.49.49,0,0,0-.23-.45,1.78,1.78,0,0,0-.84-.14h-.78a1.11,1.11,0,0,0-.71.21A.7.7,0,0,0,10.91,42.33Zm.45-4a1,1,0,0,0,.23.71.91.91,0,0,0,.68.24c.59,0,.89-.32.89-1a1.08,1.08,0,0,0-.22-.73.84.84,0,0,0-.67-.25.86.86,0,0,0-.68.25A1,1,0,0,0,11.36,38.28Z"/><path d="M18.1,36.62a2.3,2.3,0,0,1,.51.05l-.1,1a1.75,1.75,0,0,0-.46-.05,1.32,1.32,0,0,0-1,.4A1.44,1.44,0,0,0,16.67,39v2.54h-1V36.71h.81l.14.86h.05a1.91,1.91,0,0,1,.63-.69A1.51,1.51,0,0,1,18.1,36.62Z"/><path d="M19.45,35.42A.57.57,0,0,1,19.6,35a.6.6,0,0,1,.44-.15A.57.57,0,1,1,20,36a.6.6,0,0,1-.44-.15A.57.57,0,0,1,19.45,35.42Zm1.1,6.15h-1V36.71h1Z"/><path d="M23.66,41.66A1.69,1.69,0,0,1,22.24,41a3,3,0,0,1-.51-1.85,2.92,2.92,0,0,1,.52-1.86,1.86,1.86,0,0,1,2.89,0h.05a6,6,0,0,1-.07-.83V34.73h1v6.84h-.81l-.18-.64h0A1.66,1.66,0,0,1,23.66,41.66Zm.28-.84a1.14,1.14,0,0,0,.93-.36,1.84,1.84,0,0,0,.29-1.16v-.14a2.28,2.28,0,0,0-.29-1.31,1.11,1.11,0,0,0-.94-.38,1,1,0,0,0-.84.44,2.86,2.86,0,0,0,0,2.49A1,1,0,0,0,23.94,40.82Z"/><path d="M30.77,43h-3.9v-.59h3.9Z"/><path d="M35.59,41.57h-1v-3a1.35,1.35,0,0,0-.21-.83.78.78,0,0,0-.66-.27,1,1,0,0,0-.88.38,2.36,2.36,0,0,0-.28,1.3v2.42h-1V36.71h.81l.15.64h0a1.38,1.38,0,0,1,.58-.54,2,2,0,0,1,.85-.19,1.49,1.49,0,0,1,1.49.77h.07a1.5,1.5,0,0,1,.6-.57,2,2,0,0,1,.9-.2,1.66,1.66,0,0,1,1.27.44,2,2,0,0,1,.4,1.34v3.17h-1v-3a1.35,1.35,0,0,0-.21-.83.78.78,0,0,0-.66-.27,1,1,0,0,0-.88.37A1.93,1.93,0,0,0,35.59,39Z"/><path d="M43.14,41.57l-.21-.68h0a2,2,0,0,1-.71.61,2.37,2.37,0,0,1-.92.16,1.52,1.52,0,0,1-1.11-.39,1.44,1.44,0,0,1-.41-1.09A1.31,1.31,0,0,1,40.31,39a3.23,3.23,0,0,1,1.7-.41l.84,0v-.26a1,1,0,0,0-.22-.7.89.89,0,0,0-.67-.23,2.46,2.46,0,0,0-.72.11c-.22.08-.44.16-.66.26L40.25,37a3.72,3.72,0,0,1,.87-.31,4.07,4.07,0,0,1,.88-.11,2.09,2.09,0,0,1,1.4.41,1.57,1.57,0,0,1,.48,1.27v3.27Zm-1.54-.7a1.27,1.27,0,0,0,.9-.32,1.12,1.12,0,0,0,.34-.88v-.42l-.62,0a2.09,2.09,0,0,0-1.06.24.75.75,0,0,0-.33.67.65.65,0,0,0,.19.5A.82.82,0,0,0,41.6,40.87Z"/><path d="M47.78,41.66A1.69,1.69,0,0,1,46.35,41h-.06q.06.61.06.75v2h-1v-7h.83c0,.09.07.31.15.65h.05a1.63,1.63,0,0,1,1.45-.74,1.69,1.69,0,0,1,1.42.66,3,3,0,0,1,.51,1.85A3,3,0,0,1,49.21,41,1.7,1.7,0,0,1,47.78,41.66Zm-.25-4.19a1.08,1.08,0,0,0-.9.36A1.85,1.85,0,0,0,46.35,39v.15a2.29,2.29,0,0,0,.28,1.29,1.05,1.05,0,0,0,.92.39.94.94,0,0,0,.83-.43,2.35,2.35,0,0,0,.29-1.26,2.19,2.19,0,0,0-.29-1.23A1,1,0,0,0,47.53,37.47Z"/><line class="cls-34" x1="246.14" y1="66.96" x2="270.57" y2="92.4"/><line class="cls-34" x1="254.09" y1="66.68" x2="270.31" y2="82.9"/><line class="cls-34" x1="262.99" y1="67.6" x2="270" y2="74.61"/><line class="cls-34" x1="245.16" y1="75.61" x2="261.38" y2="91.83"/><line class="cls-34" x1="245.63" y1="83.95" x2="253.92" y2="92.25"/><line class="cls-34" x1="268.95" y1="67.88" x2="245.31" y2="92.5"/><line class="cls-34" x1="261" y1="67.6" x2="244.78" y2="83.82"/><line class="cls-34" x1="252.64" y1="67.6" x2="245.63" y2="74.61"/><line class="cls-34" x1="269.94" y1="76.53" x2="253.71" y2="92.75"/><line class="cls-34" x1="268.92" y1="85.42" x2="261.91" y2="92.43"/></svg>